<?xml version="1.0" standalone="no"?>
<!DOCTYPE svg PUBLIC "-//W3C//DTD SVG 1.1//EN" "http://www.w3.org/Graphics/SVG/1.1/DTD/svg11.dtd" >
<svg xmlns="http://www.w3.org/2000/svg">
<metadata></metadata>
<defs>
<font id="anitllesregular" horiz-adv-x="1044" >
<font-face units-per-em="2048" ascent="1638" descent="-410" />
<missing-glyph horiz-adv-x="712" />
<glyph horiz-adv-x="2048" />
<glyph horiz-adv-x="2048" />
<glyph unicode="&#xd;" horiz-adv-x="1024" />
<glyph unicode=" "  horiz-adv-x="712" />
<glyph unicode="&#x09;" horiz-adv-x="712" />
<glyph unicode="&#xa0;" horiz-adv-x="712" />
<glyph unicode="!" horiz-adv-x="471" d="M45 0h379v422h-379v-422zM45 647h381v1086h-381v-1086z" />
<glyph unicode="&#x22;" horiz-adv-x="872" d="M45 1186h49l34 20q34 21 81 49.5t96 61.5t80 57q4 4 12.5 10.5t8.5 8.5v346h-361v-553zM467 1186h49l34 20q34 21 81 49.5t97 61.5t81 57q4 4 11 10.5t7 8.5v346h-360v-553z" />
<glyph unicode="#" horiz-adv-x="1323" d="M45 340h182v-340h379v340h125v-340h379v340h84l84 426h-168v139h84l84 426h-168v402h-379v-402h-125v402h-379v-402h-102l-80 -426h182v-139h-102zM606 766v139h125v-139h-125z" />
<glyph unicode="$" horiz-adv-x="1042" d="M45 135l135 -135h156v-307h377v307h141l135 135v807l-147 131h-430v273h225v-160h49l34 20q34 21 81 49.5t97 61.5t81 57q4 4 11 10.5t7 8.5v206l-135 136h-149v321h-377v-321h-156l-129 -133v-754l117 -166h459v-293h-221v152h-48l-34 -21q-33 -20 -81 -50t-97.5 -61.5 t-79.5 -56.5q-4 -4 -12.5 -11t-8.5 -9v-197z" />
<glyph unicode="%" horiz-adv-x="1413" d="M45 940l86 -78h303q6 6 8 6q41 35 60 54l18 18v719l-67 70h-340l-68 -70v-719zM219 0h356l611 1726h-361zM229 1067v467h107v-467h-107zM893 78l88 -78h303l6 6q41 37 60 54l18 18v719l-68 69h-339l-68 -69v-719zM1077 205v467h107v-467h-107z" />
<glyph unicode="&#x26;" horiz-adv-x="1249" d="M45 156q0 -2 15.5 -18.5t38 -38t45 -44t38.5 -37.5q4 -4 19.5 -11t19.5 -7h602q4 0 20.5 7t20.5 11q14 14 38 37t45.5 44.5t36.5 38t15 18.5v499h205v451l-788 2v233h450v392h-684l-137 -138v-1439zM416 408v243h221v-243h-221z" />
<glyph unicode="'" horiz-adv-x="450" d="M45 1186h49l34 20q34 21 81 49.5t97 61.5t81 57q4 4 11.5 10.5t7.5 8.5v346h-361v-553z" />
<glyph unicode="(" horiz-adv-x="684" d="M45 156v1439l135 138h459v-392h-225v-933h225v-408h-418q-4 0 -20.5 7t-20.5 11q-14 14 -37.5 37t-45 44.5t-37 38t-15.5 18.5z" />
<glyph unicode=")" horiz-adv-x="684" d="M45 0h418q4 0 19.5 7t19.5 11q14 14 37.5 37t45 44.5l38 38t16.5 18.5v1439l-137 138h-457v-392h223v-933h-223v-408z" />
<glyph unicode="*" horiz-adv-x="976" d="M45 1108l178 176l-178 176l268 269l179 -177l174 177l266 -271l-172 -174l172 -176l-266 -268l-174 176l-179 -176z" />
<glyph unicode="+" horiz-adv-x="966" d="M45 674h250v-250h379v250h248v379h-248v247h-379v-247h-250v-379z" />
<glyph unicode="," horiz-adv-x="473" d="M45 -252v674h383v-416l-10 -37q0 -2 -8.5 -9t-12.5 -11q-31 -25 -80 -57.5t-96 -63.5t-82 -52l-35 -22z" />
<glyph unicode="-" horiz-adv-x="729" d="M45 649h557l82 430h-551z" />
<glyph unicode="." horiz-adv-x="468" d="M45 0h379v422h-379v-422z" />
<glyph unicode="/" horiz-adv-x="1054" d="M45 0l584 1733h381l-576 -1733h-389z" />
<glyph unicode="0" d="M45 156l176 -156h606q172 154 172 156v1439l-135 138h-682l-137 -138v-1439zM416 408v933h213v-933h-213z" />
<glyph unicode="1" horiz-adv-x="966" d="M45 0v379h244v973h-244v381h614v-1354h263v-379h-877z" />
<glyph unicode="2" horiz-adv-x="1034" d="M45 1407v197l135 135h674l135 -135v-807l-147 -131h-430v-273h567v-393h-932v856l162 199h418v295h-221v-152h-48l-34 20q-33 21 -81 50.5t-97.5 61.5t-79.5 56q-4 4 -12.5 11.5t-8.5 9.5z" />
<glyph unicode="3" d="M45 156l15 -16q16 -17 38.5 -39.5l45 -45t38.5 -37.5q4 -4 19.5 -11t19.5 -7h602q4 0 20.5 7t20.5 11q14 14 38 37t45.5 44.5t36.5 38t15 18.5v1439l-135 138h-682l-137 -138v-376h358v122h226v-270h-396v-379h396v-284h-223v170h-361v-422z" />
<glyph unicode="4" horiz-adv-x="1052" d="M45 651v1082h389v-654h193v654h381v-1733h-381v651h-582z" />
<glyph unicode="5" horiz-adv-x="1034" d="M45 135l135 -135h674l135 135v807l-147 131h-430v273h567v393h-932v-891l121 -166h459v-293h-221v152h-48l-34 -21q-33 -20 -81 -50t-97.5 -61.5t-79.5 -56.5q-4 -4 -12.5 -11t-8.5 -9v-197z" />
<glyph unicode="6" horiz-adv-x="1036" d="M45 135l129 -135h674l135 135v807l-147 131h-430v273h225v-160h49l34 20q34 21 81 49.5t97 61.5t81 57q4 4 11 10.5t7 8.5v206l-135 136h-682l-129 -133v-1467zM399 389v293h222v-293h-222z" />
<glyph unicode="7" horiz-adv-x="966" d="M45 0l492 1352h-492v381h877v-381l-500 -1352h-377z" />
<glyph unicode="8" d="M45 135l137 -135h682l135 135v400l-163 196v244l163 207v417l-135 136h-682l-137 -136v-409l139 -215v-244l-139 -188v-408zM406 389v252h223v-252h-223zM406 1071v275h223v-275h-223z" />
<glyph unicode="9" horiz-adv-x="1036" d="M45 135l137 -135h680l129 135v1464l-129 136h-672l-137 -136v-804l148 -133h430v-273h-225v162h-50l-34 -21q-33 -20 -79 -49.5t-96.5 -61.5t-80.5 -57q-4 -4 -12.5 -11t-8.5 -9v-207zM416 1053v293h221v-293h-221z" />
<glyph unicode=":" horiz-adv-x="471" d="M45 0h379v422h-379v-422zM47 647h379v422h-379v-422z" />
<glyph unicode=";" horiz-adv-x="473" d="M45 -252v674h383v-416l-10 -37q0 -2 -8.5 -9t-12.5 -11q-31 -25 -80 -57.5t-96 -63.5t-82 -52l-35 -22zM49 647v422h379v-422h-379z" />
<glyph unicode="&#x3c;" horiz-adv-x="868" d="M45 860l379 -860h399l-372 860l372 873h-399z" />
<glyph unicode="=" horiz-adv-x="817" d="M45 362h643l84 426h-647zM45 926h643l84 426h-647z" />
<glyph unicode="&#x3e;" horiz-adv-x="868" d="M45 0l371 860l-371 873h397l381 -873l-381 -860h-397z" />
<glyph unicode="?" horiz-adv-x="1034" d="M45 1407v197l135 135h674l135 -135v-807l-147 -131h-410v-146h-381v336l158 199h418v295h-221v-152h-48l-34 20q-33 21 -81 50.5t-97.5 61.5t-79.5 56q-4 4 -12.5 11.5t-8.5 9.5zM51 0h381v362h-381v-362z" />
<glyph unicode="@" horiz-adv-x="1175" d="M45 135l137 -135h682l135 135v314l-18 18q-33 25 -82 60.5t-96 69.5t-81 59l-34 24h-49v-291h-223v934h223v-92h-111v-494h602v492h-131v346q0 2 -15 18.5t-36.5 38t-45 44t-38.5 36.5q-4 4 -20.5 12.5t-20.5 8.5h-602q-4 0 -19.5 -8.5t-19.5 -12.5q-16 -14 -38.5 -36.5 t-45 -44t-38 -38t-15.5 -18.5v-1440z" />
<glyph unicode="A" horiz-adv-x="1318" d="M45 0h377l18 88h215l86 428h-217l135 711l234 -1227h381l-330 1733h-573z" />
<glyph unicode="B" d="M45 0h819l135 135v674h-2l-116 217l118 262v311l-135 136h-819v-1735zM406 389v264h223v-264h-223zM406 1067v276h233l-76 -276h-157z" />
<glyph unicode="C" d="M45 156q0 -2 15.5 -18.5t38 -38t45 -44t38.5 -37.5q4 -4 19.5 -11t19.5 -7h602q4 0 20.5 7t20.5 11q14 14 38 37t45.5 44.5t36.5 38t15 18.5v506h-360v-254h-223v933h223v-290h49l34 25q34 24 81 57.5t96 69.5t82 61l11 11t7 9v311l-135 138h-682l-137 -138v-1439z" />
<glyph unicode="D" d="M45 0h819l135 135v1598h-954v-1733zM416 389v952h213v-952h-213z" />
<glyph unicode="E" horiz-adv-x="913" d="M45 0v1733h805q-61 -381 -66 -381h-350v-273h260l-84 -428h-176v-213h434l-84 -438h-739z" />
<glyph unicode="F" horiz-adv-x="913" d="M45 0h379v651h223l84 428h-299v254h350l86 396h-823v-1729z" />
<glyph unicode="G" horiz-adv-x="1214" d="M45 156q0 -2 15.5 -18.5t38 -38t45 -44t38.5 -37.5q4 -4 19.5 -11t19.5 -7h602q4 0 20.5 7t20.5 11q14 14 38 37t45.5 44.5t36.5 38t15 18.5v348h60l110 411h-532v-411h2v-96h-223v933h223v-290h49l34 25q34 24 81 57.5t96 69.5t82 61l11 11t7 9v311l-135 138h-682 l-137 -138v-1439z" />
<glyph unicode="H" horiz-adv-x="1054" d="M45 0h389v651h195v-651h381v1733h-381v-654h-193v654h-391v-1733z" />
<glyph unicode="I" horiz-adv-x="966" d="M45 0h877v379h-263v973h263v381h-877v-381h244v-973h-244v-379z" />
<glyph unicode="J" d="M45 135l137 -135h682l135 135v1600h-593v-412h223v-934h-223v291h-50l-34 -24q-33 -25 -79 -59t-96.5 -69.5t-80.5 -60.5q-4 -4 -12 -11l-9 -7v-314z" />
<glyph unicode="K" horiz-adv-x="1120" d="M45 0h399v932q254 -123 254 -127v-805h367v973q-2 2 -11.5 12t-22.5 24.5t-21 22.5l-217 115l282 586h-399l-232 -478v478h-399v-1733z" />
<glyph unicode="L" horiz-adv-x="792" d="M45 0v1733h381v-1295h322l-99 -438h-604z" />
<glyph unicode="M" horiz-adv-x="1327" d="M45 0v1733h379l235 -861l244 859l379 2v-1733h-379v586l-151 -586h-187l-143 586v-586h-377z" />
<glyph unicode="N" d="M45 0h373v1341h211v-1341h370v1595l-135 138h-819v-1733z" />
<glyph unicode="O" d="M45 156l176 -156h606q172 154 172 156v1439l-135 138h-682l-137 -138v-1439zM416 408v933h213v-933h-213z" />
<glyph unicode="P" horiz-adv-x="1054" d="M45 0v1733h813l152 -156v-961l-58 -57l-98 -78q-10 -8 -24.5 -22.5t-14.5 -18.5h-377v-440h-393zM442 827h127q33 29 50.5 42.5t19.5 17.5q6 8 6 10v444h-203v-514z" />
<glyph unicode="Q" d="M45 156v1439l137 138h682l135 -138v-1439q0 -2 -172 -156h-118v-96q0 -2 -7.5 -8.5t-11.5 -10.5q-33 -25 -82 -60.5t-96 -70.5t-81 -60l-34 -24h-47v330h-129zM416 1341l2 -1009l215 192v817h-217z" />
<glyph unicode="R" horiz-adv-x="1191" d="M45 0h397v1341h279v-446q0 -6 -20.5 -25.5t-36.5 -31.5q-12 -10 -39 -33t-57.5 -48.5t-57.5 -47t-37 -29.5l289 -680h385l-232 602q0 6 21 21l96 77q8 8 23.5 22.5t25 24l11.5 11.5v817l-156 158h-891v-1733z" />
<glyph unicode="S" d="M45 135v406h363v-152h221v293h-379l-205 272v645l137 136h682l135 -136v-413h-360v160h-225v-273h331l254 -264v-674l-135 -135h-682z" />
<glyph unicode="T" horiz-adv-x="966" d="M45 1352v381h877v-381h-256v-1352h-371v1352h-250z" />
<glyph unicode="U" horiz-adv-x="1048" d="M45 156l180 -156h606q172 154 173 156v1573h-373v-1321h-217l4 1321h-373v-1573z" />
<glyph unicode="V" horiz-adv-x="1318" d="M45 1733h381l233 -1229q119 610 177.5 917.5t60.5 311.5h377l-326 -1733h-573z" />
<glyph unicode="W" horiz-adv-x="1327" d="M45 0h379l244 860l235 -860h379v1733h-377v-586l-145 586h-185l-151 -586v586h-379v-1733z" />
<glyph unicode="X" horiz-adv-x="1130" d="M45 0l262 860l-262 873h399l127 -484l117 484h397l-270 -873l270 -860h-397l-117 410l-127 -410h-399z" />
<glyph unicode="Y" horiz-adv-x="1130" d="M45 1733l332 -682v-1051h377v1057l331 676h-397l-119 -281l-125 281h-399z" />
<glyph unicode="Z" horiz-adv-x="966" d="M45 0h877v379h-488l488 973v381h-877v-381h492l-492 -973v-379z" />
<glyph unicode="[" horiz-adv-x="684" d="M45 0v1733h594v-392h-225v-933h225v-408h-594z" />
<glyph unicode="\" horiz-adv-x="1052" d="M45 1733l573 -1733h390l-584 1733h-379z" />
<glyph unicode="]" horiz-adv-x="684" d="M45 0h594v1733h-594v-392h223v-933h-223v-408z" />
<glyph unicode="^" horiz-adv-x="1318" d="M45 0h377q2 2 60.5 309t176.5 918l234 -1227h381l-330 1733h-573z" />
<glyph unicode="_" horiz-adv-x="966" d="M45 0v379h877v-379h-877z" />
<glyph unicode="`" horiz-adv-x="976" d="M45 1460l268 269l619 -621l-266 -268z" />
<glyph unicode="a" horiz-adv-x="1318" d="M45 0l326 1733h573l330 -1733h-381l-234 1227l-135 -711h217l-86 -428h-215q-16 -82 -18 -88h-377z" />
<glyph unicode="b" d="M45 0h819l135 135v674h-2l-116 217l118 262v311l-135 136h-819v-1735zM406 389v264h223v-264h-223zM406 1067v276h233l-76 -276h-157z" />
<glyph unicode="c" d="M45 156q0 -2 15.5 -18.5t38 -38t45 -44t38.5 -37.5q4 -4 19.5 -11t19.5 -7h602q4 0 20.5 7t20.5 11q14 14 38 37t45.5 44.5t36.5 38t15 18.5v506h-360v-254h-223v933h223v-290h49l34 25q34 24 81 57.5t96 69.5t82 61l11 11t7 9v311l-135 138h-682l-137 -138v-1439z" />
<glyph unicode="d" d="M45 0h819l135 135v1598h-954v-1733zM416 389v952h213v-952h-213z" />
<glyph unicode="e" horiz-adv-x="913" d="M45 0v1733h805q-61 -381 -66 -381h-350v-273h260l-84 -428h-176v-213h434l-84 -438h-739z" />
<glyph unicode="f" horiz-adv-x="913" d="M45 0h379v651h223l84 428h-299v254h350l86 396h-823v-1729z" />
<glyph unicode="g" horiz-adv-x="1214" d="M45 156q0 -2 15.5 -18.5t38 -38t45 -44t38.5 -37.5q4 -4 19.5 -11t19.5 -7h602q4 0 20.5 7t20.5 11q14 14 38 37t45.5 44.5t36.5 38t15 18.5v348h60l110 411h-532v-411h2v-96h-223v933h223v-290h49l34 25q34 24 81 57.5t96 69.5t82 61l11 11t7 9v311l-135 138h-682 l-137 -138v-1439z" />
<glyph unicode="h" horiz-adv-x="1054" d="M45 0h389v651h195v-651h381v1733h-381v-654h-193v654h-391v-1733z" />
<glyph unicode="i" horiz-adv-x="493" d="M57 0v1733h381v-1733h-381z" />
<glyph unicode="j" d="M45 135l137 -135h682l135 135v1600h-593v-412h223v-934h-223v291h-50l-34 -24q-33 -25 -79 -59t-96.5 -69.5t-80.5 -60.5q-4 -4 -12 -11l-9 -7v-314z" />
<glyph unicode="k" horiz-adv-x="1120" d="M45 0h399v932q254 -123 254 -127v-805h367v973q-2 2 -11.5 12t-22.5 24.5t-21 22.5l-217 115l282 586h-399l-232 -478v478h-399v-1733z" />
<glyph unicode="l" horiz-adv-x="792" d="M45 0v1733h381v-1295h322l-99 -438h-604z" />
<glyph unicode="m" horiz-adv-x="1327" d="M45 0h377v586l143 -586h187l151 586v-586h379v1733h-379l-244 -861l-235 861h-379v-1733z" />
<glyph unicode="n" horiz-adv-x="1054" d="M45 0v1733h391l193 -654v654h381v-1733h-381l-195 651v-651h-389z" />
<glyph unicode="o" d="M45 156v1439l137 138h682l135 -138v-1439q0 -4 -155 -142q-2 -2 -6 -5t-11 -9h-606zM416 408h213v933h-213v-933z" />
<glyph unicode="p" horiz-adv-x="1054" d="M45 0v1733h813l152 -156v-961l-58 -57l-98 -78q-10 -8 -24.5 -22.5t-14.5 -18.5h-377v-440h-393zM442 827h127q33 29 50.5 42.5t19.5 17.5q6 8 6 10v444h-203v-514z" />
<glyph unicode="q" d="M45 156v1439l137 138h682l135 -138v-1439q0 -2 -172 -156h-118v-96q0 -2 -7.5 -8.5t-11.5 -10.5q-33 -25 -82 -60.5t-96 -70.5t-81 -60l-34 -24h-47v330h-129zM416 1341l2 -1009l215 192v817h-217z" />
<glyph unicode="r" horiz-adv-x="1191" d="M45 0h397v1341h279v-446q0 -6 -20.5 -25.5t-36.5 -31.5q-12 -10 -39 -33t-57.5 -48.5t-57.5 -47t-37 -29.5l289 -680h385l-232 602q0 6 21 21l96 77q8 8 23.5 22.5t25 24l11.5 11.5v817l-156 158h-891v-1733z" />
<glyph unicode="s" horiz-adv-x="1042" d="M45 135v197q0 2 8 9t13 11q31 25 80 56.5t97 61.5t81 50l34 21h48v-152h221v293h-459l-117 166v754l129 133h682l135 -136v-206q0 -2 -7 -8.5t-11 -10.5q-31 -25 -81 -57.5t-97 -61t-81 -49.5l-34 -20h-49v160h-225v-273h430l147 -131v-807l-135 -135h-674z" />
<glyph unicode="t" horiz-adv-x="966" d="M45 1352v381h877v-381h-256v-1352h-371v1352h-250z" />
<glyph unicode="u" horiz-adv-x="1048" d="M45 156v1573h373v-1321h213v1321h373v-1573q0 -2 -173 -156h-606z" />
<glyph unicode="v" horiz-adv-x="1318" d="M45 1733h381l233 -1229q119 610 177.5 917.5t60.5 311.5h377l-326 -1733h-573z" />
<glyph unicode="w" horiz-adv-x="1327" d="M45 0v1733h379v-586l151 586h185l145 -586v586h377v-1733h-432l-182 860l-199 -860h-424z" />
<glyph unicode="x" horiz-adv-x="1130" d="M45 0l262 860l-262 873h399l127 -484l117 484h397l-270 -873l270 -860h-397l-117 410l-127 -410h-399z" />
<glyph unicode="y" horiz-adv-x="1130" d="M45 1733h399l127 -484l117 484h397l-323 -863v-870h-383v860z" />
<glyph unicode="z" horiz-adv-x="966" d="M45 0v379l473 973h-473v381h877v-381l-476 -977h476v-375h-877z" />
<glyph unicode="{" horiz-adv-x="872" d="M45 629h197l186 -629h399l-270 860l270 873h-399l-186 -650h-197v-454z" />
<glyph unicode="|" horiz-adv-x="468" d="M45 -332h379v2396h-379v-2396z" />
<glyph unicode="}" horiz-adv-x="872" d="M45 0l270 860l-270 873h397l189 -650h196v-454h-196l-189 -629h-397z" />
<glyph unicode="~" horiz-adv-x="1665" d="M45 1108l602 621l8 -11l9 11l344 -349l344 344l268 -268l-610 -612l-9 -6l-346 346l-344 -344z" />
<glyph horiz-adv-x="442" />
<glyph unicode="&#xa1;" horiz-adv-x="471" d="M45 -2v1085h381v-1085h-381zM47 1309v424h379v-424h-379z" />
<glyph unicode="&#xa2;" d="M45 156q0 -2 15.5 -18.5t38 -38t45 -44t38.5 -37.5q4 -4 19.5 -11t19.5 -7h121v-315h377v315h104q4 0 20.5 7t20.5 11q14 14 38 37t45.5 44.5t36.5 38t15 18.5v506h-360v-254h-223v933h223v-290h49l34 25q34 24 81 57.5t96 69.5t82 61l11 11t7 9v311l-135 138h-145v325 h-377v-325h-160l-137 -138v-1439z" />
<glyph unicode="&#xa3;" horiz-adv-x="913" d="M45 0h823l-86 395h-350v252h299l-84 428h-223v654h-379v-1729z" />
<glyph unicode="&#xa5;" horiz-adv-x="1130" d="M45 1733l250 -660h-70l-80 -426h234v-78h-154l-80 -426h234v-143h383v143h141l84 426h-225v78h141l84 426h-149l247 660h-397l-117 -484l-127 484h-399z" />
<glyph unicode="&#xa6;" horiz-adv-x="471" d="M45 -2v760h381v-760h-381zM47 983v750h379v-750h-379z" />
<glyph unicode="&#xa8;" horiz-adv-x="911" d="M45 1311v422h377v-422h-377zM489 1309v424h377v-424h-377z" />
<glyph unicode="&#xa9;" horiz-adv-x="2097" d="M45 289l33 377l61 14l-16 -361zM176 475q0 170 252 211l-10 -88q-16 6 -37 6q-51 0 -90 -51q-51 -63 -51 -145q0 -74 73 -74q51 0 66 8l2 -61q-18 -12 -34.5 -14.5t-33.5 -2.5q-102 0 -133 162q-2 16 -3 25.5t-1 23.5zM453 356q0 231 129 316q8 8 18 8h16q113 0 142 -127 q-31 -256 -131 -256q-18 -2 -30.5 -4t-27.5 -2q-94 0 -116 65zM518 451q0 -90 55 -91q37 0 95 37q16 25 22 51.5t6 51.5q0 29 -10 45q-29 47 -63 47q-57 0 -105 -115v-26zM795 657l200 -231l11 254l61 -21v-362q-90 0 -209 180v-180l-55 -8zM1133 305l34 375l64 12l-19 -362 zM1272 330q12 182 141 360q20 14 43 15q66 0 88 -117l4 -275l-39 17q-37 80 -82 80q-43 0 -86 -80h-69zM1376 492h111l-41 120zM1606 672l198 -230l15 250l57 -20v-363q-84 0 -211 183v-179l-51 -8zM1921 279l49 34l51 -24l-57 -56zM1956 410l14 282l82 -20l-43 -269z" />
<glyph unicode="&#xaa;" horiz-adv-x="704" d="M45 868h188l9 43h108l43 213h-108l67 357l117 -613h190l-165 865h-285z" />
<glyph unicode="&#xab;" horiz-adv-x="1677" d="M45 842l623 620l268 -266l-354 -354l352 -353l-270 -266zM739 840l623 620l270 -266l-354 -354l350 -353l-268 -266z" />
<glyph unicode="&#xac;" horiz-adv-x="1110" d="M45 645l88 436h932l-145 -739h-424l67 303h-518z" />
<glyph unicode="&#xad;" horiz-adv-x="561" d="M45 649l88 430h383l-84 -430h-387z" />
<glyph unicode="&#xae;" horiz-adv-x="565" d="M45 940l86 -78h303q6 6 8 6q41 35 60 54l18 18v719l-67 70h-340l-68 -70v-719zM213 1063v467h160v-82h-90v-385h-70z" />
<glyph unicode="&#xaf;" horiz-adv-x="964" d="M45 1354h875v379h-875v-379z" />
<glyph unicode="&#xb0;" horiz-adv-x="468" d="M45 1309v424h379v-424h-379z" />
<glyph unicode="&#xb1;" horiz-adv-x="966" d="M45 0h877v379h-877v-379zM45 834h250v-250h379v250h248v378h-248v246h-379v-246h-250v-378z" />
<glyph unicode="&#xb2;" horiz-adv-x="561" d="M45 1565v98l68 70h336l67 -70v-401l-74 -68h-215v-135h285v-197h-465v428l78 99h211v147h-111v-76h-22q-4 2 -30 17.5t-62.5 39t-57.5 37.5q-2 4 -5 8z" />
<glyph unicode="&#xb3;" horiz-adv-x="569" d="M45 946l8 -9t19.5 -19.5t24 -22.5t20.5 -18q2 -2 8 -5.5t10 -3.5h301q2 0 9.5 3t11.5 6l18 18l22.5 22.5t18.5 19.5l8 9v719l-67 68h-340l-70 -68v-188h180v61h113v-135h-199v-189h199v-143h-113v84h-182v-209z" />
<glyph unicode="&#xb4;" horiz-adv-x="976" d="M45 1108l266 -268l621 620l-268 269z" />
<glyph unicode="&#xb5;" horiz-adv-x="2203" d="M45 465l248 -113l-160 -61l350 -68l-116 -71l407 -17l-43 -86l363 64l43 -52l-13 -47l291 121l133 -74l144 154l190 -53l14 178l189 -27q4 4 4 13q0 37 -119 153l189 13l-15 24l-233 100l145 39h15l-15 25l-336 63l117 76h-393l31 88l-381 -49l-13 76l-28 10l-267 -113 l-114 76l-160 -149q-18 -6 -33 -6q-53 0 -141 55l-29 -176l-188 12l12 -51l103 -113zM367 346l24 227l47 11l-12 -219zM467 446v13q0 102 186 129l-4 -56q-8 4 -15 5.5t-13 1.5q-31 0 -70 -31q-39 -39 -39 -92q0 -43 55 -43q20 0 51 6l3 -39q-25 -4 -38.5 -7t-15.5 -3 q-78 0 -98 100q-2 2 -2 16zM672 387q0 139 98 193q8 0 11 1t1 1h15q81 0 104 -74q-20 -156 -98 -156q-12 -2 -22.5 -3t-20.5 -1q-74 0 -88 39zM721 446q0 -55 43 -55q31 0 67 19q25 32 25 65q0 16 -10 27q-16 29 -47 28q-43 0 -76 -69q-2 -2 -2 -15zM932 569l149 -141l9 156 l43 -15v-217q-66 0 -156 109v-109l-39 -6zM1182 358l26 226l47 8l-12 -219zM1288 369q8 113 105 223q18 6 32 6q51 0 68 -72l4 -164l-33 7q-29 53 -59 53q-31 0 -66 -53h-51zM1366 469h82l-31 76zM1540 580l146 -142l10 154l45 -12v-220q-66 0 -158 109v-107l-37 -4z M1778 338l32 24l39 -16l-41 -35zM1800 422l10 170l64 -12l-31 -164z" />
<glyph unicode="&#xb6;" horiz-adv-x="1191" d="M45 0h387l289 680q-10 8 -38 30.5t-58.5 47t-57 47t-37.5 33.5q-16 12 -36.5 31.5t-20.5 25.5v446h277v-1341h397v1733h-889l-156 -158v-817l58 -58l98 -77q20 -14 21 -21z" />
<glyph unicode="&#xb7;" horiz-adv-x="468" d="M45 647v422h379v-422h-379z" />
<glyph unicode="&#xb8;" horiz-adv-x="471" d="M45 0v-334l59 4l34 22q34 21 82 52t97.5 63.5t79.5 57.5q4 4 12.5 11t8.5 9l8 37v78h-381z" />
<glyph unicode="&#xb9;" horiz-adv-x="526" d="M45 866v189h119v485h-119v193h305v-678h131v-189h-436z" />
<glyph unicode="&#xba;" horiz-adv-x="565" d="M45 940l86 -78h303q6 6 8 6q41 35 60 54l18 18v719l-67 70h-340l-68 -70v-719zM229 1067v467h107v-467h-107z" />
<glyph unicode="&#xbb;" horiz-adv-x="1675" d="M45 1194l354 -354l-350 -353l268 -266l619 619l-623 620zM739 1196l355 -354l-351 -353l269 -266l618 619l-620 620z" />
<glyph unicode="&#xbc;" horiz-adv-x="1441" d="M45 866v189h119v485h-119v193h305v-678h131v-189h-436zM219 0l606 1726h361l-611 -1726h-356zM915 326v540h195v-327h98v327h189v-866h-189v326h-293z" />
<glyph unicode="&#xbd;" horiz-adv-x="1404" d="M45 866v189h119v485h-119v193h305v-678h131v-189h-436zM219 0l606 1726h361l-611 -1726h-356zM887 702v99l67 69h336l70 -69v-402l-74 -67h-217v-135h285v-197h-465v428l80 98h209v150h-111v-76h-23l-17 10q-17 11 -40.5 25t-49.5 30.5t-40 26.5q-2 4 -6 7z" />
<glyph unicode="&#xbe;" horiz-adv-x="1439" d="M45 946l8 -9t19.5 -19.5t24 -22.5t20.5 -18q2 -2 8 -5.5t10 -3.5h301q2 0 9.5 3t11.5 6l18 18l22.5 22.5t18.5 19.5l8 9v719l-67 68h-340l-70 -68v-188h180v61h113v-135h-199v-189h199v-143h-113v84h-182v-209zM217 0h356l611 1726h-361zM913 326h293v-326h189v866h-189 v-327h-98v327h-195v-540z" />
<glyph unicode="&#xbf;" horiz-adv-x="1034" d="M45 135l137 -135h674l133 135v197q0 2 -7 9l-11 11q-31 25 -81 56.5t-97.5 61.5t-82.5 50l-34 21h-47v-152h-221v295h417l158 199v338h-379v-148h-409l-150 -131v-807zM604 1378v361h379v-361h-379z" />
<glyph unicode="&#xc0;" horiz-adv-x="1310" d="M45 0h375q4 4 18 59h213l86 303h-215l133 500l232 -862h379l-328 1217h-569zM340 1751l205 -420h377l-205 420h-377z" />
<glyph unicode="&#xc1;" horiz-adv-x="1310" d="M45 0l324 1217h569l328 -1217h-379l-232 862l-133 -500h215l-86 -303h-213q-14 -55 -18 -59h-375zM375 1331l205 420h376l-204 -420h-377z" />
<glyph unicode="&#xc2;" horiz-adv-x="1310" d="M45 0h375q4 4 18 59h213l86 303h-215l133 500l232 -862h379l-328 1217h-569zM287 1319h303l65 172l66 -170h303l-176 416h-373z" />
<glyph unicode="&#xc3;" horiz-adv-x="1310" d="M45 0h375q4 4 18 59h213l86 303h-215l133 500l232 -862h379l-328 1217h-569zM217 1329h270l56 156l63 -158h326l168 418h-271l-55 -158l-61 160h-328z" />
<glyph unicode="&#xc4;" horiz-adv-x="1310" d="M45 0l324 1217h569l328 -1217h-379l-232 862l-133 -500h215l-86 -303h-213q-14 -55 -18 -59h-375zM242 1327v416h376v-416h-376zM688 1331v414h379l-2 -414h-377z" />
<glyph unicode="&#xc5;" horiz-adv-x="1310" d="M45 0l324 1217h569l328 -1217h-379l-232 862l-133 -500h215l-86 -303h-213q-14 -55 -18 -59h-375zM473 1331v416h377v-416h-377z" />
<glyph unicode="&#xc6;" horiz-adv-x="1763" d="M45 0h379q2 4 6 25.5t10 62.5h217l86 428h-217l136 711l233 -1227h739l84 438h-434v213h174l84 428h-258v273h350q2 0 64 381h-1325z" />
<glyph unicode="&#xc7;" d="M45 156q0 -2 15.5 -18.5t38 -38t45 -44t38.5 -37.5q4 -4 19.5 -11t19.5 -7h111v-334l59 4l34 22q34 21 82 52t97 63.5t80 57.5q4 4 12.5 11t8.5 9l8 37v78h110q4 0 20.5 7t20.5 11q14 14 38 37t45.5 44.5t36.5 38t15 18.5v506h-360v-254h-223v933h223v-290h49l34 25 q34 24 81 57.5t96 69.5t82 61l11 11t7 9v311l-135 138h-682l-137 -138v-1439z" />
<glyph unicode="&#xc8;" horiz-adv-x="913" d="M45 0h739l84 309h-434v152h176l84 303h-260v192h350q4 0 66 269h-805v-1225zM125 1743l205 -420h377l-203 420h-379z" />
<glyph unicode="&#xc9;" horiz-adv-x="913" d="M45 0v1225h805q-61 -268 -66 -269h-350v-192h260l-84 -303h-176v-152h434l-84 -309h-739zM176 1319l205 420h377l-205 -420h-377z" />
<glyph unicode="&#xca;" horiz-adv-x="913" d="M45 0h739l84 309h-434v152h176l84 303h-260v192h350q4 0 66 269h-805v-1225zM66 1321h301l67 172l66 -170h301l-174 416h-375z" />
<glyph unicode="&#xcb;" horiz-adv-x="929" d="M45 1333v416h377v-416h-377zM61 0v1225h805q-61 -268 -65 -269h-350v-192h260l-84 -303h-176v-152h434l-84 -309h-740zM492 1331v420h380l-2 -420h-378z" />
<glyph unicode="&#xcc;" horiz-adv-x="671" d="M45 1739l205 -420h377l-205 420h-377zM174 0h385v1219h-385v-1219z" />
<glyph unicode="&#xcd;" horiz-adv-x="671" d="M45 1315l205 420h377l-205 -420h-377zM129 0v1219h385v-1219h-385z" />
<glyph unicode="&#xce;" horiz-adv-x="825" d="M45 1321h301l68 172l65 -170h301l-174 416h-375zM219 0h385v1219h-385v-1219z" />
<glyph unicode="&#xcf;" horiz-adv-x="917" d="M45 1325v416h379v-416h-379zM266 0v1219h385v-1219h-385zM494 1323v420h378l-2 -420h-376z" />
<glyph unicode="&#xd0;" horiz-adv-x="1191" d="M45 645h148v-645h817l137 135v1598h-954v-658h-60zM563 389v256h39l84 430h-123v266h213v-952h-213z" />
<glyph unicode="&#xd1;" d="M45 0h373v821h209v-821h372v1073l-137 137h-817v-1210zM66 1307h270l55 155l64 -157h325l166 419h-270l-53 -157l-64 159h-326z" />
<glyph unicode="&#xd2;" horiz-adv-x="1046" d="M45 156v925l135 138h682l135 -138l4 -925q-6 -6 -23 -22.5t-40 -36t-47.5 -42t-44.5 -41.5q-2 -2 -6 -5t-11 -9h-606zM164 1741l203 -420h378l-204 420h-377zM422 825l2 -419h205v419h-207z" />
<glyph unicode="&#xd3;" horiz-adv-x="1046" d="M45 156v925l135 138h682l135 -138l4 -925q0 -4 -155 -142q-2 -2 -6 -5t-11 -9h-606zM256 1323l205 420h377l-205 -420h-377zM418 408h211v417h-207z" />
<glyph unicode="&#xd4;" horiz-adv-x="1046" d="M45 156l178 -156h606q6 6 10.5 9t6.5 5q20 18 44.5 41t47.5 42.5t40 36t23 22.5v925l-139 138h-682l-135 -138v-925zM152 1317h301l65 172l68 -170h301l-176 416h-373zM424 406v419h205v-419h-205z" />
<glyph unicode="&#xd5;" horiz-adv-x="1046" d="M45 156l178 -156h606q6 6 10.5 9t6.5 5q20 18 44.5 41t47.5 42.5t40 36t23 22.5v925l-139 138h-682l-135 -138v-925zM88 1305h270l54 155l65 -157h324l168 419h-271l-55 -157l-61 159h-328zM424 406v419h205v-419h-205z" />
<glyph unicode="&#xd6;" horiz-adv-x="1046" d="M45 156v925l135 138h682l135 -138l4 -925q0 -4 -155 -142q-2 -2 -6 -5t-11 -9h-606zM111 1325v416h376v-416h-376zM418 408h211v417h-207zM557 1323v420h381l-2 -420h-379z" />
<glyph unicode="&#xd7;" horiz-adv-x="1122" d="M45 0h397l125 233l117 -233h393l-268 487l268 494h-393l-117 -272l-125 272h-397l260 -494z" />
<glyph unicode="&#xd8;" d="M45 156v1439l137 138h682l135 -138v-1439q0 -2 -172 -156h-606zM416 1038l102 303h-102v-303zM537 408h92v280z" />
<glyph unicode="&#xd9;" horiz-adv-x="1048" d="M45 156l180 -156h606q172 154 170 156v1063h-370v-811h-215v811h-371v-1063zM201 1743l205 -420h376l-202 420h-379z" />
<glyph unicode="&#xda;" horiz-adv-x="1048" d="M45 156v1063h371v-811h215v811h370v-1063q2 -2 -170 -156h-606zM266 1323l203 420h379l-205 -420h-377z" />
<glyph unicode="&#xdb;" horiz-adv-x="1048" d="M45 156l180 -156h606q172 154 170 156v1063h-370v-811h-215v811h-371v-1063zM160 1321h303l65 172l66 -170h301l-174 416h-375z" />
<glyph unicode="&#xdc;" horiz-adv-x="1048" d="M45 156v1063h371v-811h215v811h370v-1063q2 -2 -170 -156h-606zM121 1323v416h379v-416h-379zM569 1321v420h379l-2 -420h-377z" />
<glyph unicode="&#xdd;" horiz-adv-x="1130" d="M45 1219h399l119 -410l125 410h397l-323 -826v-393h-377v383zM303 1319l203 420h379l-205 -420h-377z" />
<glyph unicode="&#xde;" horiz-adv-x="1052" d="M45 0v1733h391v-236h377q0 -4 14.5 -18.5t24.5 -20.5l98 -78q6 -6 15.5 -16t18.5 -19.5t16 -16.5l8 -7v-961l-152 -155h-432v-205h-379zM440 596h203v444l-1 4q-1 3 -5 7q-2 2 -19.5 16t-50.5 43h-127v-514z" />
<glyph unicode="&#xdf;" horiz-adv-x="1046" d="M45 -330h379v1671h205v-278l-94 4v-367h96v-292l-88 4v-412h282q4 0 20.5 7t20.5 11q14 14 38 37t45.5 44.5t36.5 38t15 18.5v1439l-135 138h-682l-137 -138z" />
<glyph unicode="&#xe0;" horiz-adv-x="1310" d="M45 0h375q4 4 18 59h213l86 303h-215l133 500l232 -862h379l-328 1217h-569zM340 1751l205 -420h377l-205 420h-377z" />
<glyph unicode="&#xe1;" horiz-adv-x="1310" d="M45 0l324 1217h569l328 -1217h-379l-232 862l-133 -500h215l-86 -303h-213q-14 -55 -18 -59h-375zM375 1331l205 420h376l-204 -420h-377z" />
<glyph unicode="&#xe2;" horiz-adv-x="1310" d="M45 0h375q4 4 18 59h213l86 303h-215l133 500l232 -862h379l-328 1217h-569zM287 1319h303l65 172l66 -170h303l-176 416h-373z" />
<glyph unicode="&#xe3;" horiz-adv-x="1310" d="M45 0h375q4 4 18 59h213l86 303h-215l133 500l232 -862h379l-328 1217h-569zM217 1329h270l56 156l63 -158h326l168 418h-271l-55 -158l-61 160h-328z" />
<glyph unicode="&#xe4;" horiz-adv-x="1310" d="M45 0l324 1217h569l328 -1217h-379l-232 862l-133 -500h215l-86 -303h-213q-14 -55 -18 -59h-375zM242 1327v416h376v-416h-376zM688 1331v414h379l-2 -414h-377z" />
<glyph unicode="&#xe5;" horiz-adv-x="1310" d="M45 0l324 1217h569l328 -1217h-379l-232 862l-133 -500h215l-86 -303h-213q-14 -55 -18 -59h-375zM473 1331v416h377v-416h-377z" />
<glyph unicode="&#xe6;" horiz-adv-x="1763" d="M45 0h379q2 4 6 25.5t10 62.5h217l86 428h-217l136 711l233 -1227h739l84 438h-434v213h174l84 428h-258v273h350q2 0 64 381h-1325z" />
<glyph unicode="&#xe7;" d="M45 156q0 -2 15.5 -18.5t38 -38t45 -44t38.5 -37.5q4 -4 19.5 -11t19.5 -7h111v-334l59 4l34 22q34 21 82 52t97 63.5t80 57.5q4 4 12.5 11t8.5 9l8 37v78h110q4 0 20.5 7t20.5 11q14 14 38 37t45.5 44.5t36.5 38t15 18.5v506h-360v-254h-223v933h223v-290h49l34 25 q34 24 81 57.5t96 69.5t82 61l11 11t7 9v311l-135 138h-682l-137 -138v-1439z" />
<glyph unicode="&#xe8;" horiz-adv-x="913" d="M45 0h739l84 309h-434v152h176l84 303h-260v192h350q4 0 66 269h-805v-1225zM125 1743l205 -420h377l-203 420h-379z" />
<glyph unicode="&#xe9;" horiz-adv-x="913" d="M45 0v1225h805q-61 -268 -66 -269h-350v-192h260l-84 -303h-176v-152h434l-84 -309h-739zM176 1319l205 420h377l-205 -420h-377z" />
<glyph unicode="&#xea;" horiz-adv-x="913" d="M45 0h739l84 309h-434v152h176l84 303h-260v192h350q4 0 66 269h-805v-1225zM66 1321h301l67 172l66 -170h301l-174 416h-375z" />
<glyph unicode="&#xeb;" horiz-adv-x="929" d="M45 1333v416h377v-416h-377zM61 0v1225h805q-61 -268 -65 -269h-350v-192h260l-84 -303h-176v-152h434l-84 -309h-740zM492 1331v420h380l-2 -420h-378z" />
<glyph unicode="&#xec;" horiz-adv-x="671" d="M45 1739l205 -420h377l-205 420h-377zM174 0h385v1219h-385v-1219z" />
<glyph unicode="&#xed;" horiz-adv-x="671" d="M45 1315l205 420h377l-205 -420h-377zM129 0v1219h385v-1219h-385z" />
<glyph unicode="&#xee;" horiz-adv-x="825" d="M45 1321h301l68 172l65 -170h301l-174 416h-375zM219 0h385v1219h-385v-1219z" />
<glyph unicode="&#xef;" horiz-adv-x="917" d="M45 1325v416h379v-416h-379zM266 0v1219h385v-1219h-385zM494 1323v420h378l-2 -420h-376z" />
<glyph unicode="&#xf0;" horiz-adv-x="1036" d="M45 1393q0 -2 8 -8.5t13 -10.5q31 -25 81 -57.5t96 -61t79 -49.5l34 -20h50v160h225v-273h-430l-148 -131v-807l137 -135h672l129 135v1467l-129 133h-680l-137 -136v-206zM416 389v293h221v-293h-221z" />
<glyph unicode="&#xf1;" d="M45 0h373v821h209v-821h372v1073l-137 137h-817v-1210zM66 1307h270l55 155l64 -157h325l166 419h-270l-53 -157l-64 159h-326z" />
<glyph unicode="&#xf2;" horiz-adv-x="1046" d="M45 156v925l135 138h682l135 -138l4 -925q-6 -6 -23 -22.5t-40 -36t-47.5 -42t-44.5 -41.5q-2 -2 -6 -5t-11 -9h-606zM164 1741l203 -420h378l-204 420h-377zM422 825l2 -419h205v419h-207z" />
<glyph unicode="&#xf3;" horiz-adv-x="1046" d="M45 156v925l135 138h682l135 -138l4 -925q0 -4 -155 -142q-2 -2 -6 -5t-11 -9h-606zM256 1323l205 420h377l-205 -420h-377zM418 408h211v417h-207z" />
<glyph unicode="&#xf4;" horiz-adv-x="1046" d="M45 156l178 -156h606q6 6 10.5 9t6.5 5q20 18 44.5 41t47.5 42.5t40 36t23 22.5v925l-139 138h-682l-135 -138v-925zM152 1317h301l65 172l68 -170h301l-176 416h-373zM424 406v419h205v-419h-205z" />
<glyph unicode="&#xf5;" horiz-adv-x="1046" d="M45 156l178 -156h606q6 6 10.5 9t6.5 5q20 18 44.5 41t47.5 42.5t40 36t23 22.5v925l-139 138h-682l-135 -138v-925zM88 1305h270l54 155l65 -157h324l168 419h-271l-55 -157l-61 159h-328zM424 406v419h205v-419h-205z" />
<glyph unicode="&#xf6;" horiz-adv-x="1046" d="M45 156v925l135 138h682l139 -138v-925q0 -4 -155 -142q-2 -2 -6 -5t-11 -9h-606zM111 1325v416h376v-416h-376zM418 408h211v417h-211v-417zM557 1323v420h379v-420h-379z" />
<glyph unicode="&#xf7;" horiz-adv-x="1112" d="M45 645h1022v424h-1022v-424zM362 0h379v422h-379v-422zM362 1284h379v422h-379v-422z" />
<glyph unicode="&#xf8;" d="M45 156v1439l137 138h682l135 -138v-1439q0 -2 -172 -156h-606zM416 1038l102 303h-102v-303zM537 408h92v280z" />
<glyph unicode="&#xf9;" horiz-adv-x="1048" d="M45 156l180 -156h606q172 154 170 156v1063h-370v-811h-215v811h-371v-1063zM201 1743l205 -420h376l-202 420h-379z" />
<glyph unicode="&#xfa;" horiz-adv-x="1048" d="M45 156v1063h371v-811h215v811h370v-1063q2 -2 -170 -156h-606zM266 1323l203 420h379l-205 -420h-377z" />
<glyph unicode="&#xfb;" horiz-adv-x="1048" d="M45 156l180 -156h606q172 154 170 156v1063h-370v-811h-215v811h-371v-1063zM160 1321h303l65 172l66 -170h301l-174 416h-375z" />
<glyph unicode="&#xfc;" horiz-adv-x="1048" d="M45 156v1063h371v-811h215v811h370v-1063q2 -2 -170 -156h-606zM121 1323v416h379v-416h-379zM569 1321v420h379l-2 -420h-377z" />
<glyph unicode="&#xfd;" horiz-adv-x="1130" d="M45 1219h399l119 -410l125 410h397l-323 -826v-393h-377v383zM303 1319l203 420h379l-205 -420h-377z" />
<glyph unicode="&#xfe;" horiz-adv-x="1052" d="M45 0h391v233h377q0 4 14.5 18.5t24.5 22.5l98 78q12 12 35 34t23 24v962l-152 156h-432v205h-379v-1733zM440 621v516h203v-447q0 -2 -6 -10q-4 0 -70 -59h-127z" />
<glyph unicode="&#xff;" horiz-adv-x="1130" d="M45 1219h399l119 -410l125 410h397l-323 -826v-393h-377v383zM150 1323v416h378v-416h-378zM598 1321v420h379l-2 -420h-377z" />
<glyph unicode="&#x152;" horiz-adv-x="1701" d="M45 156q0 -2 15.5 -18.5t38 -38t45 -44t38.5 -37.5q4 -4 19.5 -11t19.5 -7h1352l84 438h-434v213h174l84 428h-258v273h350q2 0 63 381h-1454l-137 -138v-1439zM416 408v933h223v-290h49q2 0 45.5 31.5t100.5 72.5v-493h-195v-254h-223z" />
<glyph unicode="&#x153;" horiz-adv-x="1701" d="M45 156q0 -2 15.5 -18.5t38 -38t45 -44t38.5 -37.5q4 -4 19.5 -11t19.5 -7h1352l84 438h-434v213h174l84 428h-258v273h350q2 0 63 381h-1454l-137 -138v-1439zM416 408v933h223v-290q41 0 89.5 31.5t105.5 72.5v-493h-195v-254h-223z" />
<glyph unicode="&#x178;" horiz-adv-x="1130" d="M45 1219h399l119 -410l125 410h397l-323 -826v-393h-377v383zM150 1323v416h378v-416h-378zM598 1321v414h377v-414h-377z" />
<glyph unicode="&#x2c6;" horiz-adv-x="1329" d="M45 1106l266 -268l355 352l352 -350l266 268l-618 621z" />
<glyph unicode="&#x2dc;" horiz-adv-x="970" d="M45 1305h270l54 155l65 -157h324l168 419h-271l-55 -157l-61 159h-328z" />
<glyph unicode="&#x2000;" horiz-adv-x="1032" />
<glyph unicode="&#x2001;" horiz-adv-x="2064" />
<glyph unicode="&#x2002;" horiz-adv-x="1032" />
<glyph unicode="&#x2003;" horiz-adv-x="2064" />
<glyph unicode="&#x2004;" horiz-adv-x="688" />
<glyph unicode="&#x2005;" horiz-adv-x="516" />
<glyph unicode="&#x2006;" horiz-adv-x="344" />
<glyph unicode="&#x2007;" horiz-adv-x="344" />
<glyph unicode="&#x2008;" horiz-adv-x="258" />
<glyph unicode="&#x2009;" horiz-adv-x="412" />
<glyph unicode="&#x200a;" horiz-adv-x="114" />
<glyph unicode="&#x2010;" horiz-adv-x="729" d="M45 649h557l82 430h-551z" />
<glyph unicode="&#x2011;" horiz-adv-x="729" d="M45 649h557l82 430h-551z" />
<glyph unicode="&#x2012;" horiz-adv-x="729" d="M45 649h557l82 430h-551z" />
<glyph unicode="&#x2013;" horiz-adv-x="729" d="M45 649h557l82 430h-551z" />
<glyph unicode="&#x2014;" horiz-adv-x="1048" d="M45 645l88 434h871l-84 -434h-875z" />
<glyph unicode="&#x2018;" horiz-adv-x="448" d="M45 1184v346q0 2 7 8t11 10q31 25 81.5 57.5t97.5 61.5t80 49l34 21h47v-553h-358z" />
<glyph unicode="&#x2019;" horiz-adv-x="450" d="M45 1186h49l34 20q34 21 81 49.5t97 61.5t81 57q4 4 11.5 10.5t7.5 8.5v346h-361v-553z" />
<glyph unicode="&#x201a;" horiz-adv-x="473" d="M45 -252v674h383v-416l-10 -37q0 -2 -8.5 -9t-12.5 -11q-31 -25 -80 -57.5t-96 -63.5t-82 -52l-35 -22z" />
<glyph unicode="&#x201c;" horiz-adv-x="872" d="M45 1184v346q0 2 8 8t13 10q31 25 80 57.5t96 61.5t80 49l34 21h50v-553h-361zM467 1184v346q0 2 8 8t12 10q31 25 81 57.5t96.5 61.5t79.5 49l34 21h49v-553h-360z" />
<glyph unicode="&#x201d;" horiz-adv-x="872" d="M45 1186h49l34 20q34 21 81 49.5t96 61.5t80 57q4 4 12.5 10.5t8.5 8.5v346h-361v-553zM467 1186h49l34 20q34 21 81 49.5t97 61.5t81 57q4 4 11 10.5t7 8.5v346h-360v-553z" />
<glyph unicode="&#x201e;" horiz-adv-x="935" d="M45 -250v674h381v-416l-8 -37q0 -2 -8.5 -9t-12.5 -11q-31 -25 -80 -57.5t-97 -63.5t-82 -52l-34 -22zM510 -252v674h381v-416l-8 -37q0 -2 -8.5 -9t-12.5 -11q-31 -25 -80 -57.5t-97 -63.5t-82 -52l-34 -22z" />
<glyph unicode="&#x2022;" horiz-adv-x="305" d="M45 408h215v933h-215v-933z" />
<glyph unicode="&#x2026;" horiz-adv-x="1441" d="M45 0v422h377v-422h-377zM530 0v422h379v-422h-379zM1020 0v422h377v-422h-377z" />
<glyph unicode="&#x202f;" horiz-adv-x="412" />
<glyph unicode="&#x2039;" horiz-adv-x="980" d="M45 842l623 620l268 -266l-354 -354l350 -353l-268 -266z" />
<glyph unicode="&#x203a;" horiz-adv-x="980" d="M45 1196l354 -354l-350 -353l268 -266l619 619l-623 620z" />
<glyph unicode="&#x205f;" horiz-adv-x="516" />
<glyph unicode="&#x20ac;" horiz-adv-x="1316" d="M45 356h274v-200q0 -2 15.5 -18.5t37 -38l44 -44t39.5 -37.5q4 -4 19 -11t20 -7h604q4 0 19.5 7t19.5 11q14 14 37.5 37t45 44.5t37 38t15.5 18.5v506h-359v-254h-225v933h225v-290h48l33 25q34 24 81 57.5t96.5 69.5t81.5 61q4 4 11.5 11t7.5 9v311l-135 138h-682 l-136 -138v-247l-194 2l-80 -430h274v-136h-194z" />
<glyph unicode="&#x2122;" horiz-adv-x="1179" d="M45 1542h125v-674h186v674h127v191h-438v-191zM516 868h191v291l71 -291h92l76 291v-291h189v865h-189l-123 -430l-116 430h-191v-865z" />
<glyph unicode="&#xe000;" horiz-adv-x="1730" d="M0 0v1731h1731v-1731h-1731z" />
</font>
</defs>
</svg>
